<svg width="50" height="50" viewBox="0 0 50 50" fill="none" xmlns="http://www.w3.org/2000/svg">
  <g clip-path="url(#clip0_76_314)">
    <path
      d="M28.1375 3.07501L28.0813 3.13126H3.1375V50.0063H37.5V37.5125H34.375V46.8813H6.2625V6.25626H25.0625L25.0469 15.6313H37.5V12.5063H37.4688L28.1375 3.07501ZM41.1938 18.8656L43.6469 21.3188L42.0094 22.9563L39.5406 20.5188L41.1938 18.8656ZM9.375 21.8875V25.0125H28.125V21.8875H9.375ZM37.3469 22.7531L39.7938 25.1656L28.4594 36.5L26.0063 34.0406L37.3469 22.7531ZM9.375 28.1375V31.2625H21.875V28.1375H9.375ZM9.375 34.3875V37.5125H18.75V34.3875H9.375ZM24.2437 36.7L25.8 38.25L23.4688 39.0313L24.2437 36.7ZM9.375 40.6375V43.7625H15.6438V40.6375H9.375Z"
      fill="#4888FF" />
  </g>
  <defs>
    <clipPath id="clip0_76_314">
      <rect width="50" height="50" fill="white" />
    </clipPath>
  </defs>
</svg>