<svg width="9" height="11" viewBox="0 0 9 11" fill="none" xmlns="http://www.w3.org/2000/svg">
  <path fill-rule="evenodd" clip-rule="evenodd"
    d="M0.152986 1.169H2.00682L2.00436 1.13797V0.328658C2.00436 0.148016 2.19744 0 2.43469 0C2.67112 0 2.86501 0.148811 2.86501 0.328658V1.13797L2.86256 1.169H6.01963L6.01718 1.13797V0.328658C6.01718 0.148016 6.21025 0 6.44669 0C6.68312 0 6.87701 0.148811 6.87701 0.328658V1.13797L6.87456 1.169H8.84701C8.93128 1.169 9 1.23585 9 1.31782V2.86641C9 2.94837 8.93128 3.01522 8.84701 3.01522H0.152986C0.068721 3.01442 0 2.94758 0 2.86561V1.31702C0 1.23505 0.068721 1.169 0.152986 1.169ZM0.038451 3.35741H8.96237C8.98364 3.35741 9 3.37412 9 3.39401V9.74117C9 9.76107 8.98282 9.77778 8.96237 9.77778H0.038451C0.0179984 9.77778 0 9.76107 0 9.74117V3.39481C0 3.37412 0.0171803 3.35741 0.038451 3.35741ZM7.95773 4.19855H6.83692C6.76902 4.19855 6.71421 4.24868 6.71421 4.30996V5.32378C6.71421 5.38506 6.76902 5.43519 6.83692 5.43519H7.95855C8.02645 5.43519 8.08208 5.38506 8.08208 5.32378V4.30996C8.08127 4.24868 8.02563 4.19855 7.95773 4.19855ZM1.00136 5.9628H2.12217C2.19007 5.9628 2.2457 6.01293 2.2457 6.07421V7.08803C2.2457 7.14931 2.19007 7.19944 2.12217 7.19944H1.03981C0.971912 7.19944 0.917098 7.14931 0.917098 7.08803V6.0376C0.917098 5.97633 0.97273 5.92619 1.03981 5.92619L1.00136 5.9628ZM1.00136 7.72784H2.12217C2.19007 7.72784 2.2457 7.77798 2.2457 7.83925V8.85308C2.2457 8.91435 2.19007 8.96449 2.12217 8.96449H1.039C0.971093 8.96449 0.91628 8.91435 0.91628 8.85308V7.83925C0.91628 7.77798 0.971912 7.72784 1.039 7.72784H1.00136ZM1.00136 4.19855H2.12217C2.19007 4.19855 2.2457 4.24868 2.2457 4.30996V5.32378C2.2457 5.38506 2.19007 5.43519 2.12217 5.43519H1.039C0.971093 5.43519 0.91628 5.38506 0.91628 5.32378V4.30996C0.91628 4.24868 0.971912 4.19855 1.039 4.19855H1.00136ZM2.94682 4.19855H4.06845C4.13635 4.19855 4.19116 4.24868 4.19116 4.30996V5.32378C4.19116 5.38506 4.13553 5.43519 4.06845 5.43519H2.94682C2.87892 5.43519 2.82329 5.38506 2.82329 5.32378V4.30996C2.82329 4.24868 2.87892 4.19855 2.94682 4.19855ZM2.94682 5.9628H4.06845C4.13635 5.9628 4.19116 6.01293 4.19116 6.07421V7.08803C4.19116 7.14931 4.13553 7.19944 4.06845 7.19944H2.94682C2.87892 7.19944 2.82329 7.14931 2.82329 7.08803V6.0376C2.82329 5.97633 2.87892 5.92619 2.94682 5.92619V5.9628ZM2.94682 7.72784H4.06845C4.13635 7.72784 4.19116 7.77798 4.19116 7.83925V8.85308C4.19116 8.91435 4.13553 8.96449 4.06845 8.96449H2.94682C2.87892 8.96449 2.82329 8.91435 2.82329 8.85308V7.83925C2.82329 7.77798 2.87892 7.72784 2.94682 7.72784ZM4.89146 4.19855H6.01309C6.08099 4.19855 6.13662 4.24868 6.13662 4.30996V5.32378C6.13662 5.38506 6.08099 5.43519 6.01309 5.43519H4.89146C4.82356 5.43519 4.76793 5.38506 4.76793 5.32378V4.30996C4.76875 4.24868 4.82356 4.19855 4.89146 4.19855ZM4.89146 5.9628H6.01309C6.08099 5.9628 6.13662 6.01293 6.13662 6.07421V7.08803C6.13662 7.14931 6.08099 7.19944 6.01309 7.19944H4.89146C4.82356 7.19944 4.76793 7.14931 4.76793 7.08803V6.0376C4.76793 5.97633 4.82356 5.92619 4.89146 5.92619V5.9628ZM7.95773 5.9628H6.83692C6.76902 5.9628 6.71421 6.01293 6.71421 6.07421V7.08803C6.71421 7.14931 6.76902 7.19944 6.83692 7.19944H7.95855C8.02645 7.19944 8.08208 7.14931 8.08208 7.08803V6.03681C8.08208 5.97553 8.02645 5.9254 7.95855 5.9254L7.95773 5.9628ZM7.95773 7.72784H6.83692C6.76902 7.72784 6.71421 7.77798 6.71421 7.83925V8.85308C6.71421 8.91435 6.76902 8.96449 6.83692 8.96449H7.95855C8.02645 8.96449 8.08208 8.91435 8.08208 8.85308V7.80185C8.08208 7.74057 8.02645 7.69044 7.95855 7.69044L7.95773 7.72784ZM4.89146 7.72784H6.01309C6.08099 7.72784 6.13662 7.77798 6.13662 7.83925V8.85308C6.13662 8.91435 6.08099 8.96449 6.01309 8.96449H4.89146C4.82356 8.96449 4.76793 8.91435 4.76793 8.85308V7.83925C4.76875 7.77798 4.82356 7.72784 4.89146 7.72784ZM0.573493 3.79668H8.50259C8.54513 3.79668 8.57949 3.83169 8.57949 3.87148V9.2645C8.57949 9.30429 8.5435 9.3393 8.50259 9.3393H0.497409C0.456504 9.3393 0.420507 9.30588 0.420507 9.2645V3.94549C0.420507 3.86352 0.489228 3.79668 0.573493 3.79668ZM6.44669 2.3396C6.68312 2.3396 6.87701 2.19079 6.87701 2.01094V1.20243L6.87456 1.1698H6.01963L6.01718 1.20243V2.01094C6.01718 2.19158 6.21025 2.3396 6.44669 2.3396ZM2.43469 2.3396C2.67112 2.3396 2.86501 2.19079 2.86501 2.01094V1.20243L2.86256 1.1698H2.00682L2.00436 1.20243V2.01094C2.00436 2.19158 2.19744 2.3396 2.43469 2.3396Z"
    fill="#5B5B5B" />
</svg>