<svg width="40" height="40" viewBox="0 0 40 40" fill="none" xmlns="http://www.w3.org/2000/svg">
  <g clip-path="url(#clip0_221_142)">
    <path fill-rule="evenodd" clip-rule="evenodd"
      d="M34 22H28C24.6857 22 22 24.686 22 28V34C22 37.314 24.6857 40 28 40H34C37.3143 40 40 37.314 40 34V28C40 24.686 37.3143 22 34 22ZM12 22H6C2.68571 22 0 24.686 0 28V34C0 37.314 2.68571 40 6 40H12C15.3143 40 18 37.314 18 34V28C18 24.686 15.3143 22 12 22ZM34 0H28C24.6857 0 22 2.686 22 6V12C22 15.314 24.6857 18 28 18H34C37.3143 18 40 15.314 40 12V6C40 2.686 37.3143 0 34 0ZM18 6V12C18 15.314 15.3143 18 12 18H6C2.68571 18 0 15.314 0 12V6C0 2.686 2.68571 0 6 0H12C15.3143 0 18 2.686 18 6Z"
      fill="currentColor" />
  </g>
  <defs>
    <clipPath id="clip0_221_142">
      <rect width="40" height="40" fill="white" />
    </clipPath>
  </defs>
</svg>