<svg width="20" height="20" viewBox="0 0 20 20" fill="none" xmlns="http://www.w3.org/2000/svg">
  <path
    d="M13.7499 5.49999C13.7499 3.49999 12.0833 1.83333 9.99995 1.83333C7.91662 1.83333 6.24995 3.49999 6.24995 5.49999C6.24995 7.49999 7.91662 9.16666 9.99995 9.16666C12.0833 9.16666 13.7499 7.49999 13.7499 5.49999ZM7.91662 5.49999C7.91662 4.41666 8.83328 3.49999 9.99995 3.49999C11.1666 3.49999 12.0833 4.41666 12.0833 5.49999C12.0833 6.58333 11.1666 7.5 9.99995 7.5C8.83328 7.5 7.91662 6.58333 7.91662 5.49999ZM3.83328 13.5833L3.41662 15.1667C3.16662 15.9167 3.33328 16.75 3.83328 17.4167C4.33328 18 4.99995 18.3333 5.83328 18.3333H14.1666C14.9166 18.3333 15.6666 18 16.0833 17.3333C16.5833 16.6667 16.7499 15.8333 16.4999 15.0833L16.0833 13.5C15.5833 11.4167 13.7499 10 11.6666 10H8.33328C6.24995 10 4.41662 11.4167 3.83328 13.5833ZM4.99995 15.5833L5.41662 14C5.83328 12.5833 6.99995 11.6667 8.33328 11.6667H11.6666C12.9999 11.6667 14.1666 12.5833 14.5833 14L14.9999 15.5833C15.0833 15.8333 14.9999 16.1667 14.8333 16.4167C14.7499 16.5 14.4999 16.6667 14.1666 16.6667H5.83328C5.49995 16.6667 5.33328 16.5 5.24995 16.3333C4.99995 16.1667 4.91662 15.8333 4.99995 15.5833Z"
    fill="currentColor" />
</svg>