<svg width="20" height="20" viewBox="0 0 20 20" fill="none" xmlns="http://www.w3.org/2000/svg">
  <g clip-path="url(#clip0_96_76)">
    <path
      d="M16.667 5.00001H13.3337V3.33334C13.3337 2.40834 12.592 1.66667 11.667 1.66667H8.33366C7.40866 1.66667 6.66699 2.40834 6.66699 3.33334V5.00001H3.33366C2.40866 5.00001 1.67533 5.74167 1.67533 6.66667L1.66699 15.8333C1.66699 16.7583 2.40866 17.5 3.33366 17.5H16.667C17.592 17.5 18.3337 16.7583 18.3337 15.8333V6.66667C18.3337 5.74167 17.592 5.00001 16.667 5.00001ZM8.33366 3.33334H11.667V5.00001H8.33366V3.33334ZM16.667 15.8333H3.33366V6.66667H16.667V15.8333Z"
      fill="currentColor" />
  </g>
  <defs>
    <clipPath id="clip0_96_76">
      <rect width="20" height="20" fill="white" />
    </clipPath>
  </defs>
</svg>