<svg width="40" height="40" viewBox="0 0 40 40" fill="none" xmlns="http://www.w3.org/2000/svg">
  <path
    d="M33.9129 10.2174H6.08683C4.52161 10.2174 3.26074 8.95655 3.26074 7.39133C3.26074 5.82612 4.52161 4.56525 6.08683 4.56525H33.9129C35.4781 4.56525 36.739 5.82612 36.739 7.39133C36.739 8.95655 35.4781 10.2174 33.9129 10.2174ZM36.739 20C36.739 18.4348 35.4781 17.1739 33.9129 17.1739H6.08683C4.52161 17.1739 3.26074 18.4348 3.26074 20C3.26074 21.5652 4.52161 22.8261 6.08683 22.8261H33.9129C35.4781 22.8261 36.739 21.5652 36.739 20ZM36.739 32.6087C36.739 31.0435 35.4781 29.7826 33.9129 29.7826H6.08683C4.52161 29.7826 3.26074 31.0435 3.26074 32.6087C3.26074 34.1739 4.52161 35.4348 6.08683 35.4348H33.9129C35.4781 35.4348 36.739 34.1739 36.739 32.6087Z"
    fill="currentColor" />
</svg>