<svg width="25" height="25" viewBox="0 0 25 25" fill="none" xmlns="http://www.w3.org/2000/svg">
  <path
    d="M5.20837 12.5C5.20837 12.2238 5.09863 11.9588 4.90328 11.7635C4.70793 11.5681 4.44297 11.4584 4.16671 11.4584H3.12504C2.84877 11.4584 2.58382 11.5681 2.38847 11.7635C2.19312 11.9588 2.08337 12.2238 2.08337 12.5C2.08337 12.7763 2.19312 13.0413 2.38847 13.2366C2.58382 13.432 2.84877 13.5417 3.12504 13.5417H4.16671C4.44297 13.5417 4.70793 13.432 4.90328 13.2366C5.09863 13.0413 5.20837 12.7763 5.20837 12.5ZM5.87504 17.7084L5.13546 18.448C4.94145 18.6431 4.83255 18.9071 4.83255 19.1823C4.83255 19.4575 4.94145 19.7215 5.13546 19.9167C5.33063 20.1107 5.59464 20.2196 5.86983 20.2196C6.14503 20.2196 6.40904 20.1107 6.60421 19.9167L7.34379 19.1771C7.51444 18.9778 7.60362 18.7215 7.59349 18.4594C7.58336 18.1972 7.47468 17.9485 7.28917 17.763C7.10365 17.5775 6.85497 17.4688 6.5928 17.4587C6.33064 17.4485 6.07431 17.5377 5.87504 17.7084ZM12.5 5.20837C12.7763 5.20837 13.0413 5.09863 13.2366 4.90328C13.432 4.70793 13.5417 4.44297 13.5417 4.16671V3.12504C13.5417 2.84877 13.432 2.58382 13.2366 2.38847C13.0413 2.19312 12.7763 2.08337 12.5 2.08337C12.2238 2.08337 11.9588 2.19312 11.7635 2.38847C11.5681 2.58382 11.4584 2.84877 11.4584 3.12504V4.16671C11.4584 4.44297 11.5681 4.70793 11.7635 4.90328C11.9588 5.09863 12.2238 5.20837 12.5 5.20837ZM18.3959 7.64587C18.6691 7.64472 18.931 7.53623 19.125 7.34379L19.8646 6.60421C19.9737 6.51083 20.0622 6.39591 20.1248 6.26668C20.1873 6.13744 20.2224 5.99668 20.228 5.85322C20.2335 5.70976 20.2093 5.56671 20.157 5.43304C20.1046 5.29937 20.0251 5.17796 19.9236 5.07645C19.8221 4.97493 19.7007 4.8955 19.567 4.84313C19.4334 4.79076 19.2903 4.76658 19.1469 4.77213C19.0034 4.77767 18.8626 4.8128 18.7334 4.87533C18.6042 4.93785 18.4893 5.02641 18.3959 5.13546L17.7084 5.87504C17.5144 6.07021 17.4055 6.33422 17.4055 6.60942C17.4055 6.88461 17.5144 7.14862 17.7084 7.34379C17.892 7.52646 18.1371 7.63416 18.3959 7.64587ZM5.89587 7.34379C6.0899 7.53623 6.35177 7.64472 6.62504 7.64587C6.76213 7.64667 6.89803 7.62039 7.02494 7.56855C7.15186 7.51671 7.26729 7.44033 7.36462 7.34379C7.55864 7.14862 7.66753 6.88461 7.66753 6.60942C7.66753 6.33422 7.55864 6.07021 7.36462 5.87504L6.62504 5.13546C6.5286 5.03765 6.41384 4.9598 6.28731 4.90634C6.16079 4.85288 6.02497 4.82487 5.88761 4.8239C5.75026 4.82294 5.61406 4.84903 5.48679 4.9007C5.35953 4.95237 5.24368 5.0286 5.14587 5.12504C5.04807 5.22148 4.97021 5.33624 4.91676 5.46277C4.8633 5.5893 4.83529 5.72511 4.83432 5.86247C4.83237 6.13986 4.94069 6.40668 5.13546 6.60421L5.89587 7.34379ZM21.875 11.4584H20.8334C20.5571 11.4584 20.2922 11.5681 20.0968 11.7635C19.9015 11.9588 19.7917 12.2238 19.7917 12.5C19.7917 12.7763 19.9015 13.0413 20.0968 13.2366C20.2922 13.432 20.5571 13.5417 20.8334 13.5417H21.875C22.1513 13.5417 22.4163 13.432 22.6116 13.2366C22.807 13.0413 22.9167 12.7763 22.9167 12.5C22.9167 12.2238 22.807 11.9588 22.6116 11.7635C22.4163 11.5681 22.1513 11.4584 21.875 11.4584ZM19.125 17.7084C18.9271 17.5983 18.6988 17.5557 18.4745 17.5871C18.2502 17.6184 18.0423 17.722 17.8821 17.8821C17.722 18.0423 17.6184 18.2502 17.5871 18.4745C17.5557 18.6988 17.5983 18.9271 17.7084 19.125L18.448 19.8646C18.6431 20.0586 18.9071 20.1675 19.1823 20.1675C19.4575 20.1675 19.7215 20.0586 19.9167 19.8646C20.1107 19.6695 20.2196 19.4054 20.2196 19.1302C20.2196 18.8551 20.1107 18.591 19.9167 18.3959L19.125 17.7084ZM12.5 6.77087C11.3669 6.77087 10.2592 7.10688 9.31709 7.73641C8.37493 8.36594 7.64061 9.26071 7.20698 10.3076C6.77335 11.3545 6.6599 12.5064 6.88096 13.6177C7.10202 14.7291 7.64767 15.7499 8.44891 16.5512C9.25015 17.3524 10.271 17.8981 11.3823 18.1191C12.4937 18.3402 13.6456 18.2267 14.6925 17.7931C15.7394 17.3595 16.6341 16.6252 17.2637 15.683C17.8932 14.7408 18.2292 13.6332 18.2292 12.5C18.2265 10.9814 17.622 9.52578 16.5481 8.45195C15.4743 7.37812 14.0187 6.77363 12.5 6.77087ZM12.5 16.1459C11.779 16.1459 11.0741 15.932 10.4745 15.5314C9.87497 15.1308 9.40767 14.5614 9.13173 13.8952C8.85578 13.2291 8.78359 12.496 8.92426 11.7888C9.06494 11.0816 9.41217 10.4319 9.92205 9.92205C10.4319 9.41217 11.0816 9.06494 11.7888 8.92426C12.496 8.78359 13.2291 8.85578 13.8952 9.13173C14.5614 9.40767 15.1308 9.87497 15.5314 10.4745C15.932 11.0741 16.1459 11.779 16.1459 12.5C16.1459 13.467 15.7618 14.3943 15.078 15.078C14.3943 15.7618 13.467 16.1459 12.5 16.1459ZM12.5 19.7917C12.2238 19.7917 11.9588 19.9015 11.7635 20.0968C11.5681 20.2922 11.4584 20.5571 11.4584 20.8334V21.875C11.4584 22.1513 11.5681 22.4163 11.7635 22.6116C11.9588 22.807 12.2238 22.9167 12.5 22.9167C12.7763 22.9167 13.0413 22.807 13.2366 22.6116C13.432 22.4163 13.5417 22.1513 13.5417 21.875V20.8334C13.5417 20.5571 13.432 20.2922 13.2366 20.0968C13.0413 19.9015 12.7763 19.7917 12.5 19.7917Z"
    fill="currentColor" />
</svg>